<?xml version="1.0" encoding="UTF-8" standalone="no"?>
<svg width="48px" height="48px" viewBox="0 0 48 48" version="1.1" xmlns="http://www.w3.org/2000/svg" xmlns:xlink="http://www.w3.org/1999/xlink" xmlns:sketch="http://www.bohemiancoding.com/sketch/ns">
    <!-- Generator: Sketch 3.3.1 (12002) - http://www.bohemiancoding.com/sketch -->
    <title>paint-icon</title>
    <desc>Created with Sketch.</desc>
    <defs></defs>
    <g id="Page-1" stroke="none" stroke-width="1" fill="none" fill-rule="evenodd" sketch:type="MSPage">
        <g id="paint-icon" sketch:type="MSArtboardGroup" fill="#FFFFFF">
            <path d="M35.803092,23.6065574 L34.2293215,23.6065574 L34.2293215,21.2459016 C34.2293215,20.811541 33.8775838,20.4590164 33.4424363,20.4590164 L33.0812559,20.4590164 L36.0131904,12.7247213 C37.9394854,12.472918 39.3952232,10.7559344 39.6934527,8.26308197 C40.0703707,5.09744262 38.4847969,1.20786885 34.1112887,0.148721311 C33.7973215,0.0731803279 33.4691904,0.196721311 33.2826986,0.460327869 C33.0969936,0.723934426 33.0906986,1.07488525 33.2685346,1.34478689 C34.4504363,3.14911475 33.5714854,4.25783607 32.5532559,5.54203279 C32.1354199,6.0692459 31.7411904,6.56813115 31.5074854,7.1197377 C31.0644691,8.17180328 31.0392887,9.27580328 31.4382395,10.2271475 C31.6381084,10.7032131 31.9418461,11.1320656 32.3282068,11.4987541 L27.9342395,19.4801311 L27.9342395,0.786885246 C27.9342395,0.35252459 27.5825018,0 27.1473543,0 L17.7047313,0 C17.2703707,0 16.9178461,0.35252459 16.9178461,0.786885246 L16.9178461,20.4590164 L16.6180428,20.4590164 L12.1139117,11.451541 C12.1044691,11.4326557 12.0895182,11.4184918 12.0785018,11.4011803 C12.0722068,11.3901639 12.0714199,11.3775738 12.0643379,11.3665574 C12.0556822,11.3531803 12.0407313,11.3460984 12.0312887,11.3335082 C11.98801,11.2768525 11.9384363,11.2272787 11.8817805,11.184 C11.8613215,11.1682623 11.8432232,11.1501639 11.8219772,11.1367869 C11.8141084,11.1320656 11.8086002,11.1249836 11.7999445,11.1202623 L6.29174774,7.97272131 C6.03364938,7.82478689 5.71417397,7.83501639 5.46473135,8.00104918 C5.2168625,8.16629508 5.08387889,8.45744262 5.1208625,8.75331148 L5.90774774,15.0483934 C5.90853463,15.0570492 5.91404282,15.064918 5.91561659,15.0735738 C5.92033791,15.1058361 5.93450184,15.1357377 5.94394446,15.168 C5.95732151,15.2136393 5.96361659,15.2608525 5.9848625,15.3025574 L8.56269856,20.4590164 L8.2621084,20.4590164 C7.82696086,20.4590164 7.47522315,20.811541 7.47522315,21.2459016 L7.47522315,42.4918033 C7.47522315,45.1388852 9.54945266,47.2131148 12.1965346,47.2131148 L29.50801,47.2131148 C32.1999445,47.2131148 34.2293215,45.1829508 34.2293215,42.4918033 L34.2293215,36.1967213 L35.803092,36.1967213 C39.451092,36.1967213 42.098174,33.5496393 42.098174,29.9016393 C42.098174,26.2536393 39.451092,23.6065574 35.803092,23.6065574 L35.803092,23.6065574 Z M32.957715,7.73114754 C33.1072232,7.37704918 33.4369281,6.96078689 33.787092,6.52013115 C34.5786986,5.52157377 35.6787641,4.1335082 35.350633,2.30714754 C37.5712232,3.56931148 38.3762068,6.01652459 38.1299117,8.07737705 C37.9575838,9.51895082 37.1730592,11.2020984 35.5292559,11.2020984 C35.1460428,11.2020984 34.7305674,11.108459 34.294633,10.9251148 C33.6139772,10.6379016 33.1284691,10.1862295 32.8900428,9.61888525 C32.6524035,9.05232787 32.6767969,8.4 32.957715,7.73114754 L32.957715,7.73114754 Z M33.6832232,12.3753443 C33.9145674,12.472918 34.1443379,12.5460984 34.3733215,12.6090492 L31.3973215,20.4590164 L29.1916822,20.4590164 L33.6517477,12.3580328 C33.6627641,12.3627541 33.6722068,12.370623 33.6832232,12.3753443 L33.6832232,12.3753443 Z M18.4916166,1.57377049 L26.3604691,1.57377049 L26.3604691,4.72131148 L22.4260428,4.72131148 C21.9916822,4.72131148 21.6391576,5.07383607 21.6391576,5.50819672 C21.6391576,5.94255738 21.9916822,6.29508197 22.4260428,6.29508197 L26.3604691,6.29508197 L26.3604691,7.86885246 L23.9998133,7.86885246 C23.5654527,7.86885246 23.2129281,8.22137705 23.2129281,8.6557377 C23.2129281,9.09009836 23.5654527,9.44262295 23.9998133,9.44262295 L26.3604691,9.44262295 L26.3604691,11.0163934 L22.4260428,11.0163934 C21.9916822,11.0163934 21.6391576,11.368918 21.6391576,11.8032787 C21.6391576,12.2376393 21.9916822,12.5901639 22.4260428,12.5901639 L26.3604691,12.5901639 L26.3604691,15.7377049 L23.9998133,15.7377049 C23.5654527,15.7377049 23.2129281,16.0902295 23.2129281,16.5245902 C23.2129281,16.9589508 23.5654527,17.3114754 23.9998133,17.3114754 L26.3604691,17.3114754 L26.3604691,20.4590164 L18.4916166,20.4590164 L18.4916166,1.57377049 L18.4916166,1.57377049 Z M9.91378053,11.8544262 L7.31076414,13.5902951 L6.87719036,10.1193443 L9.91378053,11.8544262 L9.91378053,11.8544262 Z M7.70263299,15.2199344 L11.1043379,12.9521311 L14.8577805,20.4590164 L10.322174,20.4590164 L7.70263299,15.2199344 L7.70263299,15.2199344 Z M32.655551,42.4918033 C32.655551,44.3158033 31.33201,45.6393443 29.50801,45.6393443 L12.1965346,45.6393443 C10.431551,45.6393443 9.04899364,44.2567869 9.04899364,42.4918033 L9.04899364,22.0327869 L31.9386986,22.0327869 C31.9394854,22.0327869 31.9402723,22.0335738 31.9410592,22.0335738 C31.9418461,22.0335738 31.942633,22.0327869 31.9434199,22.0327869 L32.655551,22.0327869 L32.655551,42.4918033 L32.655551,42.4918033 Z M35.803092,34.6229508 L34.2293215,34.6229508 L34.2293215,25.1803279 L35.803092,25.1803279 C38.5823707,25.1803279 40.5244035,27.1215738 40.5244035,29.9016393 C40.5244035,32.6817049 38.5823707,34.6229508 35.803092,34.6229508 L35.803092,34.6229508 Z" id="paint" sketch:type="MSShapeGroup"></path>
        </g>
    </g>
</svg>