<?xml version="1.0" encoding="UTF-8" standalone="no"?>
<svg width="48px" height="48px" viewBox="0 0 48 48" version="1.1" xmlns="http://www.w3.org/2000/svg" xmlns:xlink="http://www.w3.org/1999/xlink" xmlns:sketch="http://www.bohemiancoding.com/sketch/ns">
    <!-- Generator: Sketch 3.3.1 (12002) - http://www.bohemiancoding.com/sketch -->
    <title>paint-icon</title>
    <desc>Created with Sketch.</desc>
    <defs></defs>
    <g id="Page-1" stroke="none" stroke-width="1" fill="none" fill-rule="evenodd" sketch:type="MSPage">
        <g id="paint-icon" sketch:type="MSArtboardGroup" fill="#FFFFFF">
            <path d="M35.8028949,23.6065574 L34.622567,23.6065574 L34.622567,21.6393443 C34.622567,21.0562623 34.1984359,20.5746885 33.6428949,20.4794754 L36.2923375,13.4887869 C38.2902392,13.117377 39.7750916,11.2902295 40.0835506,8.7037377 C40.4817146,5.3704918 38.8111572,1.27554098 34.2031572,0.159737705 C33.7325998,0.044852459 33.2392228,0.231344262 32.9614523,0.627147541 C32.6813211,1.02295082 32.6734523,1.54937705 32.9386326,1.95383607 C33.9183047,3.44813115 33.3438785,4.30504918 32.2453867,5.69154098 C31.8291244,6.21639344 31.3994851,6.75855738 31.1453211,7.36052459 C30.6598129,8.51095082 30.6354195,9.7227541 31.0752883,10.772459 C31.2570588,11.204459 31.5293211,11.5916066 31.8503703,11.9433443 L28.3274851,18.3422951 L28.3274851,1.18032787 C28.3274851,0.528 27.7986982,0 27.1471572,0 L17.7045343,0 C17.0529933,0 16.5242064,0.528 16.5242064,1.18032787 L16.5242064,19.7862295 L12.4654523,11.6687213 C12.4583703,11.6545574 12.446567,11.6443279 12.4386982,11.6309508 C12.4221736,11.6010492 12.4103703,11.5703607 12.3914851,11.5420328 C12.3607965,11.4963934 12.3245998,11.4570492 12.28919,11.416918 C12.2773867,11.4043279 12.2679441,11.389377 12.2561408,11.3775738 C12.1829605,11.3012459 12.1019113,11.239082 12.014567,11.1871475 C12.0074851,11.1824262 12.0019769,11.1761311 11.9948949,11.1721967 L6.48669818,8.02465574 C6.09876376,7.8027541 5.61876376,7.81927869 5.24656704,8.06714754 C4.87437032,8.31501639 4.67528835,8.7517377 4.73037032,9.19554098 L5.51725556,15.490623 C5.51804245,15.4977049 5.52276376,15.504 5.52355064,15.511082 C5.54007523,15.6251803 5.57312441,15.7361311 5.62427196,15.8439344 C5.62820638,15.8525902 5.62820638,15.8636066 5.63214081,15.8722623 L7.94951786,20.5062295 C7.45063261,20.6439344 7.08158343,21.0963934 7.08158343,21.6393443 L7.08158343,42.8852459 C7.08158343,45.7054426 9.37614081,48 12.1963375,48 L29.5078129,48 C32.4240097,48 34.622567,45.8014426 34.622567,42.8852459 L34.622567,36.9836066 L35.8028949,36.9836066 C39.6783047,36.9836066 42.4914195,34.1704918 42.4914195,30.295082 C42.4914195,26.4196721 39.6783047,23.6065574 35.8028949,23.6065574 L35.8028949,23.6065574 Z M29.8579769,20.4590164 L33.8301736,13.2424918 C33.8396162,13.2456393 33.848272,13.2495738 33.8577146,13.2527213 L31.1264359,20.4590164 L29.8579769,20.4590164 L29.8579769,20.4590164 Z M33.320272,8.2772459 C33.4493211,7.97272131 33.7625015,7.57691803 34.094567,7.1575082 C34.7744359,6.30059016 35.7525343,5.06754098 35.8013211,3.48039344 C37.3758785,4.72996721 37.9432228,6.71921311 37.7394195,8.42439344 C37.5867638,9.70544262 36.9155506,11.2020984 35.5290588,11.2020984 C35.198567,11.2020984 34.8350261,11.1186885 34.4470916,10.9558033 C33.8624359,10.7095082 33.450108,10.3310164 33.2525998,9.85967213 C33.0574523,9.39383607 33.080272,8.84616393 33.320272,8.2772459 L33.320272,8.2772459 Z M18.8848621,2.36065574 L25.9668293,2.36065574 L25.9668293,4.72131148 L22.4258457,4.72131148 C21.7743047,4.72131148 21.2455179,5.24931148 21.2455179,5.90163934 C21.2455179,6.55396721 21.7743047,7.08196721 22.4258457,7.08196721 L25.9668293,7.08196721 L25.9668293,7.86885246 L23.9996162,7.86885246 C23.3480752,7.86885246 22.8192883,8.39685246 22.8192883,9.04918033 C22.8192883,9.7015082 23.3480752,10.2295082 23.9996162,10.2295082 L25.9668293,10.2295082 L25.9668293,11.0163934 L22.4258457,11.0163934 C21.7743047,11.0163934 21.2455179,11.5443934 21.2455179,12.1967213 C21.2455179,12.8490492 21.7743047,13.3770492 22.4258457,13.3770492 L25.9668293,13.3770492 L25.9668293,15.7377049 L23.9996162,15.7377049 C23.3480752,15.7377049 22.8192883,16.2657049 22.8192883,16.9180328 C22.8192883,17.5703607 23.3480752,18.0983607 23.9996162,18.0983607 L25.9668293,18.0983607 L25.9668293,20.4590164 L18.8848621,20.4590164 L18.8848621,2.36065574 L18.8848621,2.36065574 Z M10.9514851,13.9207869 L14.2209933,20.4590164 L10.5651244,20.4590164 L8.20997687,15.7479344 L10.9514851,13.9207869 L10.9514851,13.9207869 Z M9.16604245,12.2738361 L7.62296048,13.303082 L7.365649,11.245377 L9.16604245,12.2738361 L9.16604245,12.2738361 Z M32.2619113,42.8852459 C32.2619113,44.4810492 31.1044031,45.6393443 29.5078129,45.6393443 L12.1963375,45.6393443 C10.6516818,45.6393443 9.44223917,44.4291148 9.44223917,42.8852459 L9.44223917,22.8196721 L27.8569277,22.8196721 C27.8577146,22.8196721 27.8585015,22.820459 27.8592883,22.820459 C27.8608621,22.820459 27.861649,22.8196721 27.8624359,22.8196721 L31.9385015,22.8196721 C31.9392883,22.8196721 31.9400752,22.820459 31.9408621,22.820459 C31.941649,22.820459 31.9424359,22.8196721 31.9432228,22.8196721 L32.2619113,22.8196721 L32.2619113,42.8852459 L32.2619113,42.8852459 Z M35.8028949,34.6229508 L34.622567,34.6229508 L34.622567,25.9672131 L35.8028949,25.9672131 C38.3508293,25.9672131 40.1307638,27.7471475 40.1307638,30.295082 C40.1307638,32.8430164 38.3508293,34.6229508 35.8028949,34.6229508 L35.8028949,34.6229508 Z" id="Imported-Layers" sketch:type="MSShapeGroup"></path>
        </g>
    </g>
</svg>